<svg
   width="5000"
   height="3000"
   viewBox="0 0 5000 3000"
   version="1.1"
   xmlns="http://www.w3.org/2000/svg">
  <path
     fill-rule="nonzero"
     fill="#231f20"
     fill-opacity="1"
     d="M 4083.738281 2104.070312 C 4083.585938 2102.949219 4083.515625 2101.886719 4083.347656 2100.753906 C 4076.871094 2057.019531 4056.703125 1965.996094 4033.28125 1872.21875 C 4072.371094 1864.71875 4100.734375 1858.941406 4113.480469 1855.675781 C 4136.515625 1849.765625 4162.550781 1843.03125 4186.558594 1833.515625 C 4203.859375 1912.621094 4218.675781 2005.246094 4220.742188 2094.128906 C 4221.070312 2108.273438 4221.257812 2122.449219 4221.328125 2136.621094 C 4190.871094 2125.636719 4147.265625 2114.726562 4083.738281 2104.070312 M 4169.953125 2661.511719 C 4167.574219 2671.570312 4165.347656 2680.933594 4163.085938 2689.640625 C 4124.949219 2665.003906 4061 2632.339844 3951.59375 2588.679688 C 3813.09375 2533.402344 3628.894531 2471.554688 3414.125 2408.023438 L 3415.964844 2335.273438 C 3422.378906 2324.925781 3428.476562 2314.742188 3434.261719 2304.75 C 3479.871094 2305.59375 3527.269531 2306.015625 3574.984375 2306.015625 C 3697.378906 2306.015625 3821.007812 2303.449219 3916.503906 2299.414062 C 4058.171875 2293.425781 4158.539062 2278.179688 4218.59375 2266.207031 C 4211.320312 2426.394531 4190.695312 2573.921875 4169.953125 2661.511719 M 3922.132812 2763.09375 C 3815.601562 2746.425781 3617.703125 2707.851562 3407.644531 2664.210938 L 3411.503906 2511.800781 C 3808.914062 2630.546875 4027.09375 2722.535156 4103.367188 2769.722656 C 4069.742188 2780.082031 4015.441406 2777.691406 3922.132812 2763.09375 M 3467.886719 1872.953125 C 3449.4375 1876.277344 3431.945312 1879.441406 3415.410156 1882.445312 C 3409.476562 1872.265625 3403.769531 1862.746094 3398.441406 1854.046875 C 3422.4375 1860.300781 3445.871094 1866.703125 3467.886719 1872.953125 M 3488.914062 1774.644531 C 3476.691406 1771.199219 3464.105469 1767.71875 3451.210938 1764.238281 C 3459.242188 1762.652344 3467.171875 1761.082031 3475.445312 1759.445312 C 3479.398438 1763.878906 3483.894531 1768.949219 3488.914062 1774.644531 M 3319.730469 1687.945312 C 3318.511719 1671.808594 3319.488281 1655.375 3322.550781 1637.902344 C 3330.949219 1589.902344 3352.332031 1418.765625 3367.941406 1293.808594 L 3368.425781 1290 C 3372.011719 1261.285156 3375.65625 1232.160156 3378.410156 1210.480469 C 3381.386719 1209.558594 3384.421875 1208.609375 3387.371094 1207.699219 C 3392.972656 1212.910156 3400.429688 1216.722656 3410.9375 1216.722656 C 3418.035156 1216.722656 3425.445312 1215.011719 3434.8125 1212.851562 L 3440.050781 1211.652344 C 3456.101562 1208.023438 3492.460938 1197.792969 3527.542969 1186.675781 L 3472.75 1657.789062 C 3420.339844 1668.171875 3368.617188 1678.375 3319.730469 1687.945312 M 3311.972656 2482.605469 L 3307.910156 2643.300781 C 3266.160156 2634.46875 3224.425781 2625.546875 3183.304688 2616.65625 C 3197.644531 2606.710938 3211 2595.410156 3223.238281 2582.605469 C 3255.042969 2549.324219 3284.730469 2515.277344 3312.003906 2481.382812 Z M 3626.75 1946.273438 C 3628.0625 1946.039062 3629.378906 1945.800781 3630.695312 1945.566406 C 3660.03125 1983.273438 3689.949219 2023.554688 3717.855469 2064.148438 C 3634.578125 2057.910156 3555.792969 2053.304688 3494.253906 2050.121094 C 3486.71875 2025.96875 3476.296875 2000.503906 3464.570312 1975.414062 C 3513.367188 1966.59375 3569.257812 1956.578125 3626.75 1946.273438 M 3875.835938 1679.480469 C 3885.816406 1709.515625 3897.472656 1749.496094 3909.40625 1793.378906 C 3837.554688 1806.570312 3753.1875 1821.753906 3672.183594 1836.285156 C 3641.285156 1797.949219 3612.589844 1763.976562 3589.136719 1736.859375 C 3674.058594 1719.945312 3769.378906 1700.867188 3875.835938 1679.480469 M 3802.425781 2202.941406 C 3699.191406 2205.617188 3587.167969 2206.460938 3484.121094 2205.238281 C 3492.429688 2184.890625 3498.503906 2166.492188 3502.214844 2150.5 C 3605.136719 2155.671875 3699.992188 2162.21875 3784.457031 2169.644531 C 3790.820312 2180.902344 3796.847656 2192.023438 3802.425781 2202.941406 M 3965.574219 2188.71875 C 3958.503906 2192.640625 3949.667969 2195.421875 3939.140625 2197.96875 C 3930.347656 2198.433594 3921.433594 2198.875 3912.273438 2199.261719 C 3912.011719 2199.269531 3911.742188 2199.28125 3911.480469 2199.292969 C 3908.894531 2193.371094 3906.203125 2187.410156 3903.355469 2181.375 C 3925.089844 2183.777344 3945.851562 2186.226562 3965.574219 2188.71875 M 3979.679688 2089.171875 C 3940.074219 2084.28125 3895.207031 2079.46875 3844.523438 2074.75 C 3813.332031 2024.484375 3777.617188 1973.621094 3741.695312 1925.652344 C 3810.847656 1913.222656 3877.3125 1901.21875 3934.746094 1890.652344 C 3953.78125 1966.75 3970.808594 2041.710938 3979.679688 2089.171875 M 3979.230469 1658.695312 C 4039.621094 1646.542969 4080.96875 1638.222656 4092.101562 1636.058594 C 4100.5 1634.421875 4117.632812 1631.09375 4127.988281 1630 C 4132.742188 1639.453125 4146.582031 1678.59375 4162.175781 1734.917969 C 4151.464844 1740.25 4130.160156 1747.910156 4088.578125 1758.574219 C 4076.9375 1761.558594 4047.96875 1767.386719 4008.035156 1774.996094 C 3996.414062 1732.039062 3984.886719 1692.019531 3974.558594 1659.632812 C 3976.140625 1659.316406 3977.644531 1659.015625 3979.230469 1658.695312 M 3680.589844 1019.105469 C 3662.941406 1022.992188 3644.832031 1027.425781 3626.214844 1032.183594 C 3625.839844 1032.285156 3625.460938 1032.386719 3625.085938 1032.488281 C 3625.0625 1032.496094 3624.945312 1032.53125 3624.894531 1032.542969 C 3621.742188 1024.484375 3617.648438 1015.84375 3612.914062 1006.851562 C 3652.140625 1005.574219 3671.375 1012.71875 3680.589844 1019.105469 M 4320.964844 2091.800781 C 4318.019531 1965.351562 4291.671875 1832.289062 4265.542969 1733.085938 C 4265.359375 1732.125 4265.050781 1731.222656 4264.816406 1730.28125 C 4244.238281 1652.636719 4223.9375 1596.261719 4215.464844 1581.011719 C 4179.8125 1516.871094 4130.289062 1526.5 4072.972656 1537.65625 C 4061.773438 1539.835938 4020.199219 1548.199219 3959.445312 1560.425781 C 3941.636719 1564.011719 3920.886719 1568.183594 3897.8125 1572.828125 C 3897.769531 1572.835938 3897.726562 1572.84375 3897.683594 1572.851562 C 3813.019531 1589.878906 3696.714844 1613.234375 3576.058594 1637.261719 L 3619.027344 1267.820312 C 3866.632812 1126.890625 3875.859375 1093.488281 3880.332031 1077.207031 C 3880.335938 1077.1875 3880.335938 1077.167969 3880.339844 1077.148438 C 3881.128906 1074.273438 3881.566406 1071.316406 3881.832031 1068.335938 C 3881.90625 1067.492188 3881.945312 1066.65625 3881.976562 1065.8125 C 3882.066406 1063.46875 3881.992188 1061.121094 3881.746094 1058.761719 C 3881.679688 1058.144531 3881.683594 1057.523438 3881.597656 1056.910156 C 3881.246094 1054.433594 3880.738281 1051.96875 3880.007812 1049.527344 C 3879.910156 1049.199219 3879.746094 1048.871094 3879.644531 1048.542969 C 3879.464844 1047.976562 3879.238281 1047.441406 3879.035156 1046.882812 C 3860.8125 991.128906 3795.875 935.546875 3744.871094 904.605469 C 3741.507812 895.851562 3735.742188 886.71875 3724.566406 878.253906 C 3707.753906 865.515625 3692.710938 861.960938 3679.175781 860.074219 C 3599.386719 796.21875 3517.191406 780.171875 3517.191406 780.171875 C 3517.191406 780.171875 3506.492188 754.1875 3488.148438 746.542969 C 3474.203125 740.730469 3451.011719 746.402344 3440.683594 749.457031 C 3433.941406 740.546875 3428.609375 733.808594 3425.308594 730.109375 C 3409.722656 712.652344 3390.320312 690.925781 3355.011719 690.925781 C 3349.511719 690.925781 3343.730469 691.597656 3337.703125 692.628906 C 3211.195312 538.570312 3053.082031 390.269531 2951.433594 325.980469 C 2838.351562 254.460938 2607.398438 121.71875 2268.972656 121.71875 C 2142.734375 121.71875 2013.195312 138.660156 1883.957031 172.070312 C 1423.585938 291.074219 989.335938 635.902344 827.941406 1010.632812 C 687.890625 1335.800781 647.933594 1681.949219 699.660156 1789.238281 L 700.328125 1790.632812 L 701.210938 1791.914062 C 718.144531 1816.550781 773.609375 1879.421875 786.875 1894.371094 C 801.175781 1936.957031 927.011719 2303.164062 1100.332031 2540.183594 C 1070.214844 2595.828125 1070.214844 2604.125 1070.214844 2608.710938 C 1070.214844 2612.0625 1070.277344 2618.976562 1083.804688 2643.816406 C 1050.375 2661.046875 1049.144531 2674.644531 1048.691406 2679.792969 C 1047.976562 2688.011719 1051.582031 2695.9375 1058.328125 2700.992188 L 1061.304688 2703.222656 C 1109.699219 2739.492188 1225.90625 2826.714844 1259.648438 2853.320312 C 1280.054688 2869.414062 1306.972656 2877.570312 1339.632812 2877.570312 C 1375.285156 2877.570312 1416.582031 2868.039062 1462.375 2849.238281 C 1535.382812 2819.269531 1629.519531 2784.734375 1668.1875 2776.707031 C 1700.683594 2769.960938 1727.355469 2769.4375 1734.753906 2769.4375 L 1757.996094 2769.960938 L 1757.042969 2746.042969 C 1761.699219 2748.265625 1765.527344 2749.207031 1769.5625 2749.207031 C 1783.75 2749.207031 1798.375 2739.738281 1808.078125 2731.871094 C 1857.226562 2748.480469 2026.855469 2805.574219 2050.03125 2810.214844 C 2063.101562 2812.828125 2072.464844 2813.992188 2080.390625 2813.992188 C 2096.324219 2813.992188 2108.148438 2808.742188 2115.546875 2798.390625 C 2118.335938 2794.488281 2121.589844 2789.4375 2124.449219 2784.839844 L 2348.496094 2818.933594 C 2374.710938 2861.363281 2389.886719 2867.085938 2401.277344 2867.085938 C 2402.867188 2867.085938 2404.429688 2866.941406 2405.953125 2866.664062 C 2410.382812 2865.859375 2516.625 2845.523438 2707.75 2722.171875 C 2749.871094 2694.984375 2787.871094 2666.988281 2822.242188 2639.179688 C 2853.402344 2648.546875 2888.832031 2657.121094 2926.058594 2662.460938 C 3052.855469 2691.261719 3200.582031 2723.25 3344.503906 2753.308594 C 3345.058594 2753.445312 3345.621094 2753.542969 3346.183594 2753.660156 C 3577.777344 2802.019531 3799.132812 2845.308594 3906.644531 2862.132812 C 3960.894531 2870.621094 4006.472656 2874.859375 4045.003906 2874.851562 C 4125.960938 2874.851562 4175.671875 2856.101562 4209.027344 2818.84375 C 4213.019531 2814.667969 4217.722656 2808.46875 4221.167969 2803.472656 C 4242.214844 2773.335938 4255.863281 2733.726562 4267.496094 2684.609375 C 4296.988281 2560.101562 4326.296875 2321.476562 4320.964844 2091.800781 " />
  <path
     fill-rule="nonzero"
     fill="#ffffff"
     fill-opacity="1"
     d="M 3134.910156 1183.550781 C 3200.941406 1161.40625 3267.042969 1140.21875 3328.402344 1121.058594 C 3308.167969 1092.410156 3286.980469 1063.019531 3275.726562 1047.425781 C 3240.804688 1058.296875 3202.316406 1070.492188 3162.546875 1083.265625 Z M 3134.910156 1183.550781 " />
  <path
     fill-rule="nonzero"
     fill="#ffffff"
     fill-opacity="1"
     d="M 2969.574219 2150.121094 C 2924.664062 2102.875 2871.929688 2048.863281 2821.890625 1998.214844 C 2775.230469 1991.660156 2736.980469 1984.824219 2709.476562 1979.34375 L 2684.847656 2085.816406 C 2748.292969 2100.570312 2863.792969 2127.171875 2969.574219 2150.121094 " />
  <path
     fill-rule="nonzero"
     fill="#ffffff"
     fill-opacity="1"
     d="M 2708.757812 1283.023438 C 2700.90625 1304.328125 2688.839844 1354.507812 2675.679688 1414.214844 C 2706.78125 1383.832031 2749.972656 1366.605469 2793.914062 1349.457031 C 2818.21875 1339.972656 2902.496094 1314.289062 3003.15625 1284.582031 C 3009.214844 1262.429688 3012.867188 1249.078125 3012.867188 1249.078125 C 3012.976562 1248.664062 3013.09375 1248.253906 3013.210938 1247.835938 L 3048.34375 1120.371094 C 2944.375 1154.53125 2849.574219 1186.730469 2810.75 1201.554688 C 2726.984375 1233.539062 2725.613281 1237.273438 2708.757812 1283.023438 " />
  <path
     fill-rule="nonzero"
     fill="#ffffff"
     fill-opacity="1"
     d="M 2670.207031 2497.007812 C 2718.214844 2510.464844 2795.5625 2529.417969 2889.472656 2551.15625 C 2955.644531 2488.226562 3002.332031 2431.289062 3033.242188 2394.058594 C 3071.898438 2347.496094 3085.894531 2312.816406 3070.511719 2273.660156 C 2943.070312 2248.378906 2747.667969 2203.394531 2659.171875 2182.773438 C 2656.585938 2190.496094 2653.429688 2200.742188 2650.15625 2213.117188 C 2667.484375 2213.539062 2685.738281 2215.042969 2706 2218.035156 C 2767.101562 2227.0625 2820.566406 2243.03125 2854.589844 2264.558594 C 2888.613281 2286.082031 2896.945312 2308.300781 2892.085938 2361.765625 C 2887.222656 2415.230469 2878.890625 2434.671875 2860.144531 2446.476562 C 2841.398438 2458.277344 2817.789062 2468.695312 2751.824219 2468 C 2708.148438 2467.539062 2669.785156 2465.773438 2637.464844 2460.257812 C 2646.269531 2490.246094 2660.261719 2494.21875 2670.207031 2497.007812 " />
  <path
     fill-rule="nonzero"
     fill="#ffffff"
     fill-opacity="1"
     d="M 2643.148438 2593.53125 C 2556.292969 2569.183594 2533.488281 2492.582031 2529.632812 2410.507812 C 2522.0625 2401.601562 2517.382812 2391.320312 2517.136719 2379.125 C 2516.445312 2344.40625 2517.136719 2284 2524.082031 2260.390625 C 2529.921875 2240.542969 2534.414062 2230.375 2544.296875 2225.730469 C 2554.523438 2175.667969 2566.941406 2141.898438 2571.796875 2129.78125 L 2575.957031 2111.800781 C 2575.960938 2111.769531 2575.960938 2111.742188 2575.964844 2111.714844 C 2575.972656 2111.6875 2575.988281 2111.667969 2575.992188 2111.640625 L 2614.457031 1945.332031 C 2554.734375 1905.992188 2486.074219 1827.808594 2510.164062 1715.871094 C 2517.652344 1681.058594 2526.648438 1637.207031 2536.269531 1590.324219 C 2564.289062 1453.777344 2596.042969 1299.011719 2614.703125 1248.375 C 2644.667969 1167 2674.0625 1146.445312 2775 1107.910156 C 2825.375 1088.675781 2968.378906 1040.683594 3105.164062 996.5 C 3105.738281 996.300781 3106.335938 996.105469 3106.921875 995.925781 C 3142.53125 984.425781 3177.640625 973.214844 3210.59375 962.828125 C 3199.042969 948.535156 3188.082031 935.207031 3178.425781 923.476562 C 3165.945312 908.3125 3155.414062 895.511719 3148.058594 886.058594 C 3130.902344 863.992188 3123.304688 836.144531 3127.726562 811.558594 C 3131.054688 793.117188 3141.148438 777.847656 3156.15625 768.578125 C 3182.964844 752.023438 3268.613281 711.257812 3315.835938 696.277344 C 3192.132812 546.269531 3038.820312 403.910156 2940.015625 341.421875 C 2744.542969 217.789062 2379.585938 63.023438 1888.402344 189.996094 C 1397.21875 316.96875 991.238281 679.507812 845.890625 1016.988281 C 700.539062 1354.46875 672.136719 1685.265625 717.246094 1778.824219 C 735.625 1805.554688 804.121094 1882.410156 804.121094 1882.410156 C 804.121094 1882.410156 936.105469 2286.714844 1123.640625 2536.902344 C 1123.640625 2536.902344 1089.808594 2598.300781 1089.808594 2607.070312 C 1089.808594 2615.84375 1116.125 2658.445312 1116.125 2658.445312 C 1116.125 2658.445312 1494.535156 2617.09375 1570.96875 2622.105469 C 1647.402344 2627.121094 1755.164062 2727.359375 1768.945312 2727.359375 C 1782.730469 2727.359375 1802.777344 2707.3125 1802.777344 2707.3125 C 1802.777344 2707.3125 2028.320312 2783.746094 2053.382812 2788.757812 C 2078.441406 2793.769531 2092.226562 2793.769531 2098.492188 2785 C 2101.507812 2780.773438 2105.109375 2775.09375 2108.03125 2770.34375 C 2111.445312 2764.785156 2117.863281 2761.851562 2124.3125 2762.835938 L 2350.847656 2797.332031 C 2356.730469 2798.226562 2361.945312 2801.605469 2365.074219 2806.671875 C 2373.550781 2820.386719 2391.457031 2847.011719 2401.722656 2845.144531 C 2415.503906 2842.636719 2519.503906 2817.578125 2696.179688 2703.554688 C 2732.394531 2680.183594 2765.449219 2656.183594 2795.84375 2632.21875 C 2733.226562 2617.28125 2680.65625 2604.042969 2643.148438 2593.53125 " />
  <path
     fill-rule="nonzero"
     fill="#ffffff"
     fill-opacity="1"
     d="M 2688.578125 1872.273438 C 2690.957031 1872.835938 2694.296875 1873.613281 2698.523438 1874.558594 C 2671.355469 1847.613281 2651.40625 1828.054688 2643.554688 1820.59375 C 2630.921875 1808.589844 2618.535156 1796.347656 2608.367188 1783.691406 C 2612.984375 1802.832031 2623.414062 1820.675781 2640.203125 1837.464844 C 2659.4375 1856.699219 2680.863281 1868.402344 2688.578125 1872.273438 " />
  <path
     fill-rule="nonzero"
     fill="#ffffff"
     fill-opacity="1"
     d="M 1736.292969 2732.898438 C 1732.105469 2729.933594 1727.351562 2726.5 1721.882812 2722.546875 C 1682.785156 2694.292969 1617.34375 2647 1570.261719 2643.910156 C 1566.257812 2643.648438 1561.34375 2643.535156 1555.652344 2643.535156 C 1455.40625 2643.535156 1122.289062 2679.808594 1118.929688 2680.171875 L 1106.25 2681.558594 L 1099.542969 2670.703125 C 1097.507812 2667.410156 1095.617188 2664.296875 1093.855469 2661.351562 C 1093.855469 2661.351562 1061.246094 2677.921875 1070.449219 2684.824219 C 1079.652344 2691.726562 1232.28125 2806.003906 1272.160156 2837.453125 C 1312.042969 2868.894531 1381.835938 2860.460938 1454.699219 2830.546875 C 1527.558594 2800.636719 1623.429688 2765.355469 1664.078125 2756.921875 C 1704.730469 2748.480469 1736.941406 2749.25 1736.941406 2749.25 Z M 1736.292969 2732.898438 " />
  <path
     fill-rule="nonzero"
     fill="#c8c7c7"
     fill-opacity="1"
     d="M 1733.578125 2730.960938 C 1720.71875 2731.429688 1698.175781 2733.050781 1672.105469 2738.460938 C 1631.457031 2746.898438 1535.585938 2782.175781 1462.726562 2812.089844 C 1389.863281 2842 1320.070312 2850.4375 1280.1875 2818.988281 C 1242.585938 2789.34375 1104.808594 2686.097656 1081.464844 2668.605469 C 1073.394531 2673.945312 1065.25 2680.925781 1070.449219 2684.824219 C 1079.652344 2691.726562 1232.277344 2806.003906 1272.160156 2837.449219 C 1312.042969 2868.898438 1381.835938 2860.460938 1454.699219 2830.550781 C 1527.558594 2800.636719 1623.429688 2765.355469 1664.082031 2756.917969 C 1704.730469 2748.480469 1736.941406 2749.25 1736.941406 2749.25 L 1736.292969 2732.898438 C 1735.445312 2732.300781 1734.472656 2731.597656 1733.578125 2730.960938 " />
  <path
     fill-rule="nonzero"
     fill="#393536"
     fill-opacity="1"
     d="M 1675.585938 1967.164062 C 1632.933594 1976.140625 1621.703125 2024.800781 1665.558594 2061.140625 C 1709.417969 2097.476562 1924.933594 2229.042969 1970.042969 2251.597656 C 2015.152344 2274.152344 2036.453125 2265.382812 2059.007812 2247.839844 C 2081.5625 2230.296875 2130.429688 2166.390625 2142.960938 2145.09375 C 2155.492188 2123.789062 2155.492188 2118.777344 2124.164062 2083.691406 C 2092.839844 2048.609375 2025.175781 1957.140625 1993.851562 1949.621094 C 1962.527344 1942.101562 1818.429688 1937.089844 1675.585938 1967.164062 " />
  <path
     fill-rule="nonzero"
     fill="#c8c7c7"
     fill-opacity="1"
     d="M 2181.804688 2092.464844 C 2134.1875 2031.066406 2031.441406 1935.835938 1993.851562 1904.511719 C 1956.261719 1873.1875 1913.65625 1869.429688 1913.65625 1869.429688 C 1913.65625 1869.429688 1943.792969 1904.035156 1981.214844 1947.484375 C 1986.453125 1948.152344 1990.734375 1948.871094 1993.851562 1949.621094 C 2025.175781 1957.140625 2092.839844 2048.609375 2124.164062 2083.695312 C 2155.492188 2118.777344 2155.492188 2123.789062 2142.960938 2145.09375 C 2130.429688 2166.394531 2081.5625 2230.296875 2059.007812 2247.839844 C 2048.671875 2255.878906 2038.570312 2262.027344 2026.34375 2264.210938 C 1991.242188 2300.769531 1949.707031 2340.851562 1913.65625 2376.902344 C 1993.851562 2353.09375 2086.574219 2286.683594 2144.214844 2235.308594 C 2201.851562 2183.9375 2229.417969 2153.863281 2181.804688 2092.464844 " />
  <path
     fill-rule="nonzero"
     fill="#ffffff"
     fill-opacity="1"
     d="M 1684.253906 2043.59375 C 1670.234375 2032.125 1662.761719 2019.933594 1662.03125 2007.351562 C 1661.453125 1997.289062 1665.226562 1986.542969 1673.117188 1975.296875 C 1666.726562 1977.164062 1661.179688 1980.054688 1656.773438 1983.902344 C 1653.230469 1992.078125 1651.574219 2000.109375 1652.027344 2007.929688 C 1652.921875 2023.425781 1661.628906 2038.035156 1677.910156 2051.355469 C 1712.160156 2079.375 1867.84375 2193.941406 2013.824219 2257.660156 C 2014.726562 2257.707031 2015.707031 2257.894531 2016.585938 2257.894531 C 2022.5625 2257.894531 2027.933594 2256.8125 2033.03125 2254.945312 C 1883.992188 2193.394531 1719.476562 2072.410156 1684.253906 2043.59375 " />
  <path
     fill-rule="nonzero"
     fill="#393536"
     fill-opacity="1"
     d="M 1952.257812 321.054688 C 1935.316406 320.113281 1930.078125 333.3125 1950.507812 337.980469 C 1970.933594 342.652344 2069.574219 365.996094 2097.003906 380.003906 C 2124.4375 394.015625 2153.621094 404.519531 2167.042969 406.269531 C 2180.46875 408.019531 2259.847656 402.183594 2275.023438 404.519531 C 2290.195312 406.851562 2293.699219 398.683594 2273.855469 387.59375 C 2254.011719 376.503906 2176.382812 356.660156 2118.601562 340.902344 C 2060.820312 325.140625 1994.28125 323.390625 1952.257812 321.054688 " />
  <path
     fill-rule="nonzero"
     fill="#393536"
     fill-opacity="1"
     d="M 1065.78125 1047.257812 C 1039.550781 1067.964844 1031.742188 1066.460938 1005.554688 1192.152344 C 979.367188 1317.84375 964.53125 1460.121094 959.292969 1494.164062 C 954.054688 1528.207031 963.65625 1532.570312 988.097656 1550.898438 C 1012.539062 1569.230469 1043.960938 1577.960938 1043.960938 1577.960938 C 1043.960938 1577.960938 1036.105469 1422.589844 1043.960938 1301.261719 C 1051.816406 1179.933594 1070.144531 1090.902344 1076.257812 1062.96875 C 1082.367188 1035.039062 1082.367188 1034.164062 1065.78125 1047.257812 " />
  <path
     fill-rule="nonzero"
     fill="#ffffff"
     fill-opacity="1"
     d="M 1012.625 1193.625 C 992.566406 1289.886719 978.972656 1397.605469 971.664062 1455.480469 C 969.386719 1473.546875 967.648438 1487.328125 966.425781 1495.257812 C 963.175781 1516.375 965.410156 1523.414062 975.9375 1532.472656 C 979.410156 1418.898438 1025.832031 1170.117188 1040.46875 1119.703125 C 1047.3125 1096.136719 1055.144531 1075.394531 1061.808594 1059.476562 C 1043.410156 1073.90625 1035.1875 1085.324219 1012.625 1193.625 " />
  <path
     fill-rule="nonzero"
     fill="#ffffff"
     fill-opacity="1"
     d="M 2270.335938 393.894531 C 2254.355469 384.96875 2196.171875 369.292969 2144.832031 355.472656 L 2116.703125 347.863281 C 2066.148438 334.078125 2008.789062 331.171875 1966.902344 329.046875 L 1950.5625 328.222656 C 1948.5625 328.222656 1947.070312 328.492188 1946.015625 328.816406 C 1947.207031 329.46875 1949.121094 330.265625 1952.113281 330.949219 C 1953.078125 331.171875 1958.460938 332.40625 1966.621094 334.347656 C 2023.253906 338.484375 2129.234375 352.1875 2246.363281 397.027344 C 2252.15625 396.863281 2257.652344 396.742188 2262.242188 396.742188 C 2268.660156 396.742188 2273.003906 396.933594 2275.863281 397.351562 C 2274.464844 396.351562 2272.660156 395.191406 2270.335938 393.894531 " />
  <path
     fill-rule="nonzero"
     fill="#c8c7c7"
     fill-opacity="1"
     d="M 1045.316406 1850.632812 C 927.460938 1805.863281 789.707031 1792.417969 723.683594 1788.410156 C 747.519531 1819.835938 804.734375 1884.046875 804.734375 1884.046875 C 805.988281 1882.375 976.398438 1844.367188 1045.316406 1850.632812 " />
  <path
     fill-rule="nonzero"
     fill="#c8c7c7"
     fill-opacity="1"
     d="M 1158.085938 2528.515625 C 1158.085938 2528.515625 1595.390625 2523.503906 1645.511719 2544.804688 C 1695.632812 2566.105469 2094.09375 2746.539062 2094.09375 2746.539062 C 2094.09375 2746.539062 1730.71875 2561.09375 1659.296875 2533.527344 C 1587.875 2505.960938 1305.945312 2513.480469 1158.085938 2528.515625 " />
  <path
     fill-rule="nonzero"
     fill="#727070"
     fill-opacity="1"
     d="M 3255.574219 719.671875 C 3277.59375 710.128906 3299.128906 701.578125 3315.839844 696.277344 C 3244.625 609.921875 3163.640625 526.203125 3088.851562 458.695312 C 2922.851562 335.570312 2691.785156 216.445312 2382.09375 149.214844 C 2326.011719 143.566406 2266.949219 141.40625 2205.140625 143.472656 C 2764.171875 224.738281 3083.554688 501.167969 3255.574219 719.671875 " />
  <path
     fill-rule="nonzero"
     fill="#727070"
     fill-opacity="1"
     d="M 2011.945312 163.480469 C 1983.382812 168.40625 1954.347656 174.265625 1924.832031 181.152344 C 2591.96875 224.667969 2959.300781 533.832031 3148.902344 773.949219 C 3151.1875 772.011719 3153.570312 770.175781 3156.15625 768.578125 C 3168.269531 761.097656 3192.429688 748.671875 3219.597656 735.914062 C 3048.941406 529.132812 2676.074219 231.578125 2011.945312 163.480469 " />
  <path
     fill-rule="nonzero"
     fill="#918f8f"
     fill-opacity="1"
     d="M 2338.542969 2660.28125 C 2302.949219 2660.28125 2273.992188 2631.328125 2273.992188 2595.734375 C 2273.992188 2560.140625 2302.949219 2531.183594 2338.542969 2531.183594 C 2374.136719 2531.183594 2403.09375 2560.140625 2403.09375 2595.734375 C 2403.09375 2631.328125 2374.136719 2660.28125 2338.542969 2660.28125 " />
  <path
     fill-rule="nonzero"
     fill="#c8c7c7"
     fill-opacity="1"
     d="M 2338.542969 2541.207031 C 2308.476562 2541.207031 2284.019531 2565.664062 2284.019531 2595.734375 C 2284.019531 2625.800781 2308.476562 2650.257812 2338.542969 2650.257812 C 2368.609375 2650.257812 2393.070312 2625.800781 2393.070312 2595.734375 C 2393.070312 2565.664062 2368.609375 2541.207031 2338.542969 2541.207031 " />
  <path
     fill-rule="nonzero"
     fill="#231f20"
     fill-opacity="1"
     d="M 2332.640625 2626.640625 C 2316.410156 2626.640625 2303.207031 2613.441406 2303.207031 2597.207031 C 2303.207031 2580.980469 2316.410156 2567.777344 2332.640625 2567.777344 C 2348.871094 2567.777344 2362.070312 2580.980469 2362.070312 2597.207031 C 2362.070312 2613.441406 2348.871094 2626.640625 2332.640625 2626.640625 M 2332.640625 2557.753906 C 2310.882812 2557.753906 2293.183594 2575.453125 2293.183594 2597.207031 C 2293.183594 2618.964844 2310.882812 2636.664062 2332.640625 2636.664062 C 2354.394531 2636.664062 2372.09375 2618.964844 2372.09375 2597.207031 C 2372.09375 2575.453125 2354.394531 2557.753906 2332.640625 2557.753906 " />
  <path
     fill-rule="nonzero"
     fill="#231f20"
     fill-opacity="1"
     d="M 2328.210938 2582.9375 C 2319.511719 2582.9375 2312.464844 2589.988281 2312.464844 2598.683594 C 2312.464844 2607.378906 2319.511719 2614.429688 2328.210938 2614.429688 C 2336.90625 2614.429688 2343.953125 2607.378906 2343.953125 2598.683594 C 2343.953125 2589.988281 2336.90625 2582.9375 2328.210938 2582.9375 " />
  <path
     fill-rule="nonzero"
     fill="#c8c7c7"
     fill-opacity="1"
     d="M 2123.335938 1801.71875 C 2123.335938 1821.601562 2107.21875 1837.71875 2087.335938 1837.71875 C 2067.453125 1837.71875 2051.335938 1821.601562 2051.335938 1801.71875 C 2051.335938 1781.835938 2067.453125 1765.71875 2087.335938 1765.71875 C 2107.21875 1765.71875 2123.335938 1781.835938 2123.335938 1801.71875 " />
  <path
     fill-rule="nonzero"
     fill="#393536"
     fill-opacity="1"
     d="M 2065.3125 1810.226562 C 2065.3125 1790.34375 2081.429688 1774.226562 2101.3125 1774.226562 C 2105.355469 1774.226562 2109.171875 1775.042969 2112.796875 1776.269531 C 2106.285156 1769.75 2097.28125 1765.714844 2087.335938 1765.714844 C 2067.453125 1765.714844 2051.335938 1781.835938 2051.335938 1801.71875 C 2051.335938 1817.558594 2061.632812 1830.859375 2075.851562 1835.671875 C 2069.339844 1829.160156 2065.3125 1820.164062 2065.3125 1810.226562 " />
  <path
     fill-rule="nonzero"
     fill="#918f8f"
     fill-opacity="1"
     d="M 3059.679688 1882.296875 C 3073.242188 1893.597656 3087.53125 1906.121094 3102.261719 1919.46875 C 3171.855469 1919.371094 3246.335938 1914.011719 3324.96875 1899.117188 C 3330.839844 1898.007812 3337.367188 1896.78125 3344.242188 1895.5 C 3337.316406 1883.519531 3330.5 1871.875 3323.988281 1860.757812 C 3309.25 1835.597656 3296.023438 1815.234375 3284.746094 1796.910156 C 3129.144531 1827.152344 3045.839844 1842.257812 3020.582031 1844.984375 C 3030.925781 1856.574219 3043.726562 1869 3059.679688 1882.296875 " />
  <path
     fill-rule="nonzero"
     fill="#918f8f"
     fill-opacity="1"
     d="M 3201.855469 2016.046875 C 3258.445312 2074.171875 3316.570312 2139.015625 3368.855469 2202.863281 C 3387.976562 2203.453125 3407.824219 2203.941406 3428.132812 2204.351562 C 3436.128906 2179.390625 3441.15625 2153.984375 3442.25 2135.019531 C 3444.367188 2098.292969 3423.085938 2044.117188 3394.890625 1988.082031 C 3375.136719 1991.707031 3357.804688 1994.921875 3343.625 1997.609375 C 3294.652344 2006.886719 3247.398438 2012.6875 3201.855469 2016.046875 " />
  <path
     fill-rule="nonzero"
     fill="#918f8f"
     fill-opacity="1"
     d="M 3247.246094 1658.207031 C 3254.339844 1590.300781 3298.960938 1329.074219 3316.054688 1230.011719 C 3247.140625 1251.828125 3173.882812 1275.78125 3102.707031 1300.410156 L 2986.332031 1722.667969 C 2984.273438 1733.714844 2983.902344 1740.882812 2984.011719 1745.179688 C 2988.582031 1745.734375 2996.582031 1746.109375 3010.195312 1745.320312 C 3027.207031 1744.050781 3121.722656 1726.429688 3246.835938 1702.15625 C 3245.484375 1689 3245.527344 1674.652344 3247.246094 1658.207031 " />
  <path
     fill-rule="nonzero"
     fill="#c8c7c7"
     fill-opacity="1"
     d="M 1795.960938 2700.351562 C 1795.960938 2700.351562 1711.457031 2631.398438 1631.6875 2602.328125 C 1551.914062 2573.257812 1299.082031 2596.917969 1125.34375 2619.90625 C 1247.703125 2588.128906 1489.042969 2559.0625 1616.8125 2584.074219 C 1699.289062 2613.820312 1766.214844 2671.957031 1795.960938 2700.351562 " />
  <path
     fill-rule="nonzero"
     fill="#c8c7c7"
     fill-opacity="1"
     d="M 1173.125 908.363281 C 1081.652344 954.722656 1006.472656 1029.902344 965.121094 1184.027344 C 923.773438 1338.148438 897.460938 1502.292969 930.039062 1547.402344 C 962.617188 1592.511719 1037.796875 1616.316406 1114.230469 1646.390625 C 1062.859375 1608.800781 1043.960938 1577.957031 1043.960938 1577.957031 C 1043.960938 1577.957031 1012.539062 1569.230469 988.097656 1550.898438 C 963.65625 1532.570312 954.054688 1528.203125 959.292969 1494.164062 C 964.53125 1460.121094 979.367188 1317.847656 1005.554688 1192.152344 C 1031.742188 1066.460938 1039.550781 1067.964844 1065.78125 1047.257812 C 1073.566406 1041.109375 1077.664062 1038.101562 1079.222656 1039.464844 C 1088.21875 1020.851562 1121.21875 957.089844 1173.125 908.363281 " />
  <path
     fill-rule="nonzero"
     fill="#918f8f"
     fill-opacity="1"
     d="M 1943.496094 2553.558594 C 1946.597656 2547.742188 1951.023438 2542.796875 1956.25 2538.75 C 1953.074219 2541.949219 1950.226562 2545.457031 1948.09375 2549.449219 C 1940.898438 2562.9375 1940.710938 2579.082031 1947.574219 2593.746094 C 1957.609375 2615.171875 1980.328125 2628.195312 2002.867188 2627.335938 C 2008.34375 2627.125 2013.816406 2626.097656 2019.09375 2624.167969 C 2023.96875 2622.382812 2028.355469 2619.777344 2032.324219 2616.703125 C 2027.359375 2621.703125 2021.386719 2625.757812 2014.492188 2628.28125 C 2009.21875 2630.210938 2003.746094 2631.238281 1998.265625 2631.449219 C 1975.726562 2632.304688 1953.011719 2619.285156 1942.976562 2597.855469 C 1936.113281 2583.195312 1936.296875 2567.050781 1943.496094 2553.558594 M 1960.859375 2557.699219 C 1960.882812 2557.667969 1960.910156 2557.644531 1960.933594 2557.617188 C 1962.160156 2555.957031 1963.554688 2554.4375 1965.078125 2553.035156 C 1967.914062 2550.429688 1971.199219 2548.265625 1974.867188 2546.71875 C 1978.449219 2545.210938 1982.191406 2544.324219 1985.96875 2544.007812 C 2001.507812 2542.710938 2017.621094 2551.070312 2025.253906 2565.667969 C 2030.472656 2575.660156 2030.875 2586.902344 2026.347656 2596.511719 C 2022.910156 2603.808594 2016.789062 2609.601562 2009.109375 2612.820312 C 1990.824219 2620.539062 1968.214844 2612.050781 1958.734375 2593.878906 C 1953.523438 2583.910156 1953.117188 2572.679688 1957.628906 2563.074219 C 1958.523438 2561.167969 1959.617188 2559.378906 1960.859375 2557.699219 M 1937.296875 2602.96875 C 1952.890625 2632.855469 1990.070312 2646.816406 2020.144531 2634.121094 C 2032.765625 2628.824219 2042.835938 2619.300781 2048.484375 2607.300781 C 2055.929688 2591.496094 2055.273438 2573.007812 2046.6875 2556.578125 C 2034.132812 2532.570312 2007.636719 2518.828125 1982.089844 2520.960938 C 1975.878906 2521.480469 1969.71875 2522.9375 1963.832031 2525.414062 C 1951.199219 2530.738281 1941.128906 2540.289062 1935.480469 2552.3125 C 1928.0625 2568.109375 1928.726562 2586.578125 1937.296875 2602.96875 " />
  <path
     fill-rule="nonzero"
     fill="#918f8f"
     fill-opacity="1"
     d="M 2018.132812 2598.015625 C 2019.046875 2597.632812 2019.859375 2597.101562 2020.726562 2596.644531 C 2021.164062 2595.902344 2021.675781 2595.203125 2022.046875 2594.417969 C 2026.007812 2586.007812 2025.65625 2576.171875 2021.089844 2567.433594 C 2014.410156 2554.660156 2000.316406 2547.347656 1986.722656 2548.484375 C 1983.417969 2548.761719 1980.144531 2549.535156 1977.011719 2550.855469 C 1971.488281 2553.179688 1966.972656 2557.082031 1963.839844 2561.929688 C 1963.703125 2567.707031 1964.875 2573.570312 1967.753906 2579.074219 C 1977.234375 2597.246094 1999.84375 2605.738281 2018.132812 2598.015625 " />
  <path
     fill-rule="nonzero"
     fill="#c8c7c7"
     fill-opacity="1"
     d="M 2643.148438 2593.53125 C 2640.167969 2592.695312 2637.445312 2591.648438 2634.613281 2590.691406 C 2540.257812 2658.441406 2436.570312 2722.097656 2384.621094 2759.09375 C 2384.621094 2759.09375 2523.917969 2677.289062 2646.292969 2594.398438 C 2645.265625 2594.113281 2644.15625 2593.8125 2643.148438 2593.53125 " />
  <path
     fill-rule="nonzero"
     fill="#c8c7c7"
     fill-opacity="1"
     d="M 2765.105469 2507.808594 C 2784.445312 2492.039062 2802.164062 2477.195312 2818.148438 2463.144531 L 2818.144531 2463.144531 C 2808.691406 2465.078125 2797.429688 2466.535156 2783.667969 2467.332031 C 2777 2473.90625 2770.085938 2480.644531 2762.734375 2487.660156 C 2753.726562 2496.253906 2744 2504.984375 2733.769531 2513.777344 C 2739.625 2515.257812 2745.714844 2516.78125 2751.9375 2518.328125 C 2756.46875 2514.769531 2760.882812 2511.25 2765.105469 2507.808594 " />
  <path
     fill-rule="nonzero"
     fill="#c8c7c7"
     fill-opacity="1"
     d="M 2654.816406 1175.246094 C 2634.199219 1189.4375 2615.609375 1204.601562 2601.566406 1220.363281 C 2613.457031 1213.363281 2625.007812 1206.914062 2636.386719 1200.707031 C 2641.964844 1191.175781 2648.019531 1182.792969 2654.816406 1175.246094 " />
  <path
     fill-rule="nonzero"
     fill="#c8c7c7"
     fill-opacity="1"
     d="M 2912.316406 804.359375 C 2908.554688 836.9375 2864.699219 1006.097656 2838.386719 1080.023438 C 2829.929688 1084.253906 2810.136719 1092.621094 2785.015625 1104.15625 C 2804.898438 1096.816406 2834.007812 1086.625 2868.863281 1074.722656 C 2892.222656 1016.28125 2931.59375 845.542969 2934.871094 810.625 C 2938.628906 770.53125 2813.328125 586.335938 2581.515625 451.007812 C 2349.707031 315.683594 2102.863281 288.117188 2102.863281 288.117188 C 2203.105469 311.925781 2381.035156 349.515625 2531.398438 442.238281 C 2681.757812 534.960938 2855.929688 674.046875 2912.316406 804.359375 " />
  <path
     fill-rule="nonzero"
     fill="#c8c7c7"
     fill-opacity="1"
     d="M 2597.53125 2018.515625 C 2499.078125 1941.691406 2277.554688 1768.457031 2261.996094 1752.898438 C 2241.949219 1732.847656 2253.226562 1696.511719 2279.539062 1640.125 C 2305.851562 1583.738281 2419.878906 1346.917969 2441.179688 1323.109375 C 2462.480469 1299.304688 2537.660156 1256.703125 2537.660156 1256.703125 C 2537.660156 1256.703125 2447.445312 1279.253906 2418.625 1313.085938 C 2389.804688 1346.917969 2233.179688 1658.917969 2221.902344 1692.75 C 2210.625 1726.582031 2199.347656 1737.859375 2269.515625 1790.488281 C 2322.40625 1830.15625 2508.351562 1960.1875 2596.761719 2021.84375 Z M 2597.53125 2018.515625 " />
  <path
     fill-rule="nonzero"
     fill="#393536"
     fill-opacity="1"
     d="M 3231.675781 2196.027344 C 3175.542969 2131.976562 3116.4375 2070.195312 3062.558594 2019.265625 C 3000.058594 2017.691406 2941.78125 2012.535156 2888.234375 2006.585938 C 2876.179688 2005.246094 2864.660156 2003.84375 2853.40625 2002.421875 C 2905.714844 2055.535156 2959.597656 2110.96875 3003.316406 2157.382812 C 3065.902344 2170.746094 3122.460938 2182.148438 3159.0625 2188.09375 C 3177.902344 2191.15625 3202.582031 2193.789062 3231.675781 2196.027344 " />
  <path
     fill-rule="nonzero"
     fill="#393536"
     fill-opacity="1"
     d="M 2608.152344 1736.957031 C 2607.742188 1738.878906 2607.585938 1740.730469 2607.269531 1742.625 C 2613.96875 1764.074219 2635 1785.644531 2658.089844 1807.582031 C 2668.71875 1817.679688 2696.652344 1845.136719 2733.542969 1881.878906 C 2771.03125 1889.230469 2828.21875 1899.058594 2899.296875 1906.960938 C 2914.453125 1908.644531 2930.003906 1910.261719 2945.929688 1911.75 C 2889.496094 1848.464844 2869.28125 1783.210938 2885.636719 1717.097656 C 2886.332031 1712.167969 2962.101562 1434.757812 2996.367188 1309.429688 C 2901.90625 1337.402344 2824.371094 1361.140625 2801.871094 1369.917969 C 2743.757812 1392.601562 2688.644531 1414.265625 2664.125 1467.679688 C 2653.894531 1515.773438 2643.558594 1566.148438 2634.464844 1610.472656 C 2624.765625 1657.707031 2615.703125 1701.886719 2608.152344 1736.957031 " />
  <path
     fill-rule="nonzero"
     fill="#ffffff"
     fill-opacity="1"
     d="M 3529.832031 1167.003906 L 3530.125 1164.464844 C 3497.972656 1173.996094 3460.777344 1185.167969 3420.4375 1197.523438 C 3424.808594 1196.675781 3429.890625 1195.445312 3436.074219 1194.050781 C 3452.765625 1190.28125 3493.015625 1178.882812 3529.832031 1167.003906 " />
  <path
     fill-rule="nonzero"
     fill="#ffffff"
     fill-opacity="1"
     d="M 2751.949219 2457.171875 C 2685.585938 2456.472656 2633.8125 2453.027344 2596.777344 2438.480469 C 2563.074219 2425.238281 2528.539062 2407.804688 2527.96875 2378.90625 C 2527.097656 2335.40625 2528.773438 2282.835938 2534.46875 2263.441406 C 2541.722656 2238.769531 2545.257812 2235.816406 2552.785156 2234.167969 C 2585.757812 2226.9375 2612.921875 2223.714844 2640.871094 2223.714844 C 2660.722656 2223.714844 2681.503906 2225.363281 2704.410156 2228.746094 C 2766.101562 2237.859375 2817.378906 2253.824219 2848.800781 2273.707031 C 2877.003906 2291.550781 2886.15625 2307.386719 2881.300781 2360.785156 C 2876.445312 2414.203125 2868.429688 2428.46875 2854.382812 2437.316406 C 2838.394531 2447.378906 2817.777344 2457.207031 2757.988281 2457.207031 Z M 2751.949219 2457.171875 " />
  <path
     fill-rule="nonzero"
     fill="#918f8f"
     fill-opacity="1"
     d="M 2849.035156 2357.945312 C 2849.035156 2404.15625 2811.574219 2441.613281 2765.367188 2441.613281 C 2719.15625 2441.613281 2681.695312 2404.15625 2681.695312 2357.945312 C 2681.695312 2311.738281 2719.15625 2274.277344 2765.367188 2274.277344 C 2811.574219 2274.277344 2849.035156 2311.738281 2849.035156 2357.945312 " />
  <path
     fill-rule="nonzero"
     fill="#c8c7c7"
     fill-opacity="1"
     d="M 2840.007812 2357.945312 C 2840.007812 2399.171875 2806.589844 2432.589844 2765.367188 2432.589844 C 2724.144531 2432.589844 2690.726562 2399.171875 2690.726562 2357.945312 C 2690.726562 2316.722656 2724.144531 2283.304688 2765.367188 2283.304688 C 2806.589844 2283.304688 2840.007812 2316.722656 2840.007812 2357.945312 " />
  <path
     fill-rule="nonzero"
     fill="#231f20"
     fill-opacity="1"
     d="M 2787.933594 2363.5 C 2787.933594 2377.882812 2776.273438 2389.539062 2761.894531 2389.539062 C 2747.515625 2389.539062 2735.859375 2377.882812 2735.859375 2363.5 C 2735.859375 2349.121094 2747.515625 2337.464844 2761.894531 2337.464844 C 2776.273438 2337.464844 2787.933594 2349.121094 2787.933594 2363.5 " />
  <path
     fill-rule="nonzero"
     fill="#393536"
     fill-opacity="1"
     d="M 2779.601562 2363.5 C 2779.601562 2373.277344 2771.671875 2381.207031 2761.894531 2381.207031 C 2752.117188 2381.207031 2744.191406 2373.277344 2744.191406 2363.5 C 2744.191406 2353.722656 2752.117188 2345.796875 2761.894531 2345.796875 C 2771.671875 2345.796875 2779.601562 2353.722656 2779.601562 2363.5 " />
  <path
     fill-rule="nonzero"
     fill="#6c696a"
     fill-opacity="1"
     d="M 3239.824219 2188.890625 L 3246.734375 2196.777344 L 3354.179688 2202.121094 C 3304.480469 2141.875 3249.328125 2080.328125 3194.105469 2023.605469 L 3187.613281 2016.9375 C 3164.894531 2017.578125 3121.648438 2018.707031 3078.074219 2019.140625 C 3130.210938 2068.960938 3185.910156 2127.378906 3239.824219 2188.890625 " />
  <path
     fill-rule="nonzero"
     fill="#6c696a"
     fill-opacity="1"
     d="M 3413.84375 2419.230469 L 3411.785156 2500.585938 L 3414.609375 2501.429688 C 3807.683594 2618.875 4031.074219 2712.273438 4109.066406 2760.515625 L 4116.101562 2764.871094 C 4151.742188 2748.742188 4157.207031 2698.734375 4157.207031 2698.734375 C 4113.273438 2670.355469 4042.742188 2636.710938 3947.582031 2598.734375 C 3811.261719 2544.332031 3626.738281 2482.277344 3413.84375 2419.230469 " />
  <path
     fill-rule="nonzero"
     fill="#6c696a"
     fill-opacity="1"
     d="M 3566.527344 1855.246094 L 3659.976562 1838.476562 C 3634.589844 1807.082031 3576.921875 1739.285156 3576.921875 1739.285156 L 3487.746094 1757.003906 C 3491.167969 1760.855469 3566.527344 1855.246094 3566.527344 1855.246094 " />
  <path
     fill-rule="nonzero"
     fill="#6c696a"
     fill-opacity="1"
     d="M 3500.78125 1789.238281 L 3485.972656 1785.0625 C 3473.792969 1781.628906 3461.246094 1778.15625 3448.390625 1774.6875 L 3421.625 1770.023438 L 3353.277344 1783.386719 C 3357.292969 1790.097656 3361.617188 1796.9375 3366.394531 1804 C 3369.652344 1808.8125 3378.488281 1822.050781 3390.183594 1840.722656 C 3415.894531 1847.316406 3442.738281 1854.558594 3470.839844 1862.535156 L 3492.746094 1868.492188 L 3555.984375 1857.140625 Z M 3500.78125 1789.238281 " />
  <path
     fill-rule="nonzero"
     fill="#918f8f"
     fill-opacity="1"
     d="M 3316.558594 2301.292969 C 3265.679688 2299.140625 3220.207031 2296.191406 3183.582031 2292.296875 C 3164.839844 2314.039062 3140.285156 2342.609375 3108.695312 2379.53125 C 3047.105469 2451.523438 2972.964844 2522.941406 2932.171875 2560.972656 C 2982.472656 2572.460938 3036.558594 2584.5625 3092.8125 2596.933594 C 3140.214844 2579.839844 3180.335938 2546.289062 3219.898438 2505.953125 C 3246.074219 2479.261719 3282.113281 2432.359375 3314.363281 2388.074219 Z M 3316.558594 2301.292969 " />
  <path
     fill-rule="nonzero"
     fill="#d3d2d2"
     fill-opacity="1"
     d="M 3315.707031 1790.261719 C 3324.59375 1803.988281 3366.878906 1871.421875 3377.492188 1889.363281 C 3383.566406 1888.246094 3389.855469 1887.097656 3396.363281 1885.910156 C 3387.835938 1871.40625 3342.738281 1798.03125 3335.9375 1787.183594 " />
  <path
     fill-rule="nonzero"
     fill="#d3d2d2"
     fill-opacity="1"
     d="M 3284.191406 1694.890625 C 3290.0625 1693.746094 3295.984375 1692.589844 3301.960938 1691.421875 C 3300.335938 1673.078125 3301.332031 1654.449219 3304.773438 1634.792969 C 3313.085938 1587.292969 3334.445312 1416.371094 3350.039062 1291.570312 C 3353.476562 1264.085938 3356.800781 1237.46875 3359.472656 1216.367188 C 3353.21875 1218.320312 3346.878906 1220.308594 3340.53125 1222.304688 C 3326.824219 1330.96875 3296.960938 1574.71875 3286.992188 1631.683594 C 3283.070312 1654.085938 3282.265625 1674.941406 3284.191406 1694.890625 " />
  <path
     fill-rule="nonzero"
     fill="#d3d2d2"
     fill-opacity="1"
     d="M 3446.097656 1978.753906 C 3439.78125 1979.898438 3433.601562 1981.019531 3427.582031 1982.113281 C 3452.871094 2034.566406 3472.039062 2086.785156 3470.355469 2121.265625 C 3469.375 2141.371094 3460.59375 2170.183594 3445.332031 2204.683594 C 3451.734375 2204.796875 3458.226562 2204.890625 3464.71875 2204.984375 C 3479.117188 2171.183594 3487.375 2142.691406 3488.378906 2122.140625 C 3490.222656 2084.3125 3470.824219 2030.695312 3446.097656 1978.753906 " />
  <path
     fill-rule="nonzero"
     fill="#d3d2d2"
     fill-opacity="1"
     d="M 3197.144531 2557.671875 C 3177.359375 2578.375 3155.039062 2593.933594 3131.132812 2605.324219 C 3140.171875 2607.292969 3149.246094 2609.273438 3158.367188 2611.253906 C 3177.449219 2599.976562 3194.757812 2586.285156 3210.191406 2570.140625 C 3247.203125 2531.40625 3281.609375 2491.105469 3312.773438 2451.019531 L 3313.550781 2420.226562 C 3278.890625 2466.320312 3239.707031 2513.128906 3197.144531 2557.671875 " />
  <path
     fill-rule="nonzero"
     fill="#c8c7c7"
     fill-opacity="1"
     d="M 2888.332031 2392.03125 C 2919.105469 2352.425781 2925.894531 2319.585938 2902.601562 2288.527344 C 2890.632812 2272.570312 2867.753906 2249.433594 2841.03125 2224.402344 C 2834.011719 2222.824219 2827.054688 2221.257812 2820.152344 2219.703125 C 2859.09375 2258.953125 2891.570312 2294.195312 2894.304688 2305.121094 C 2895.777344 2311.019531 2895.351562 2318.117188 2893.003906 2326.425781 C 2893.691406 2336.511719 2893.324219 2348.109375 2892.085938 2361.765625 C 2891.027344 2373.402344 2889.789062 2383.34375 2888.332031 2392.03125 " />
  <path
     fill-rule="nonzero"
     fill="#918f8f"
     fill-opacity="1"
     d="M 2164.824219 1506.867188 C 2137.027344 1506.867188 2114.496094 1484.332031 2114.496094 1456.535156 C 2114.496094 1428.738281 2137.027344 1406.207031 2164.824219 1406.207031 C 2192.621094 1406.207031 2215.152344 1428.738281 2215.152344 1456.535156 C 2215.152344 1484.332031 2192.621094 1506.867188 2164.824219 1506.867188 M 2168.160156 1392.28125 C 2134.515625 1392.28125 2107.242188 1419.554688 2107.242188 1453.199219 C 2107.242188 1486.84375 2134.515625 1514.117188 2168.160156 1514.117188 C 2201.804688 1514.117188 2229.078125 1486.84375 2229.078125 1453.199219 C 2229.078125 1419.554688 2201.804688 1392.28125 2168.160156 1392.28125 " />
  <path
     fill-rule="nonzero"
     fill="#918f8f"
     fill-opacity="1"
     d="M 2164.824219 1484.292969 C 2149.496094 1484.292969 2137.070312 1471.867188 2137.070312 1456.535156 C 2137.070312 1441.207031 2149.496094 1428.78125 2164.824219 1428.78125 C 2180.152344 1428.78125 2192.582031 1441.207031 2192.582031 1456.535156 C 2192.582031 1471.867188 2180.152344 1484.292969 2164.824219 1484.292969 M 2164.824219 1413.609375 C 2141.117188 1413.609375 2121.894531 1432.828125 2121.894531 1456.535156 C 2121.894531 1480.246094 2141.117188 1499.464844 2164.824219 1499.464844 C 2188.53125 1499.464844 2207.753906 1480.246094 2207.753906 1456.535156 C 2207.753906 1432.828125 2188.53125 1413.609375 2164.824219 1413.609375 " />
  <path
     fill-rule="nonzero"
     fill="#918f8f"
     fill-opacity="1"
     d="M 2164.824219 1436.671875 C 2153.851562 1436.671875 2144.957031 1445.566406 2144.957031 1456.535156 C 2144.957031 1467.507812 2153.851562 1476.402344 2164.824219 1476.402344 C 2175.796875 1476.402344 2184.691406 1467.507812 2184.691406 1456.535156 C 2184.691406 1445.566406 2175.796875 1436.671875 2164.824219 1436.671875 " />
  <path
     fill-rule="nonzero"
     fill="#ffffff"
     fill-opacity="1"
     d="M 3452.953125 1056.933594 L 3448.976562 1059.523438 C 3437.945312 1066.710938 3420.425781 1075.285156 3399.640625 1075.285156 C 3393.875 1075.285156 3388.140625 1074.609375 3382.589844 1073.269531 C 3349.863281 1065.390625 3331.398438 1046.125 3323.3125 1035.347656 L 3321.738281 1033.246094 C 3312.683594 1036.003906 3303.226562 1038.90625 3293.441406 1041.929688 C 3312.175781 1067.914062 3330.363281 1093.304688 3346.058594 1115.558594 C 3397.585938 1099.558594 3445.296875 1085.128906 3486.164062 1072.953125 C 3475.355469 1067.390625 3464.199219 1062 3452.953125 1056.933594 " />
  <path
     fill-rule="nonzero"
     fill="#c8c7c7"
     fill-opacity="1"
     d="M 3346.363281 1025.808594 C 3340.851562 1027.457031 3335.035156 1029.210938 3329.089844 1031.015625 C 3335.714844 1039.851562 3353.003906 1058.722656 3384.285156 1066.253906 C 3408.929688 1072.1875 3431.335938 1062.402344 3445.039062 1053.472656 C 3410.488281 1038.496094 3375.441406 1027.207031 3346.363281 1025.808594 " />
  <path
     fill-rule="nonzero"
     fill="#c8c7c7"
     fill-opacity="1"
     d="M 3236.429688 888.3125 C 3270 913.34375 3304.75 933.667969 3304.75 933.667969 L 3375.75 913.113281 C 3421.515625 910.347656 3436.910156 933.003906 3441.089844 946.789062 L 3531.988281 983.585938 L 3549.28125 992.707031 C 3549.28125 992.707031 3563.464844 968.089844 3545.089844 929.246094 C 3526.710938 890.402344 3465.730469 856.570312 3411.015625 821.902344 C 3356.300781 787.238281 3312.445312 767.605469 3293.441406 767.605469 C 3274.4375 767.605469 3253.617188 776.792969 3231.65625 806.867188 C 3209.699219 836.941406 3212.417969 870.410156 3236.429688 888.3125 " />
  <path
     fill-rule="nonzero"
     fill="#ffffff"
     fill-opacity="1"
     d="M 3555.59375 996.199219 C 3572.691406 1005.625 3588.121094 1014.777344 3600.898438 1022.726562 C 3598.785156 1018.382812 3596.476562 1013.953125 3593.957031 1009.4375 C 3588.941406 1000.453125 3582.660156 989.898438 3575.464844 978.265625 C 3570.703125 978.746094 3565.699219 979.335938 3560.726562 979.910156 C 3559.105469 989.65625 3556.046875 995.402344 3555.59375 996.199219 " />
  <path
     fill-rule="nonzero"
     fill="#c8c7c7"
     fill-opacity="1"
     d="M 3448.613281 943.578125 L 3464.316406 948.535156 C 3464.316406 948.535156 3445.03125 904.171875 3384.6875 908.03125 C 3428.5 907.480469 3439.519531 928.695312 3448.613281 943.578125 " />
  <path
     fill-rule="nonzero"
     fill="#727070"
     fill-opacity="1"
     d="M 3431.851562 1047.957031 C 3401.675781 1035.789062 3371.746094 1027.027344 3346.363281 1025.808594 C 3346.363281 1025.808594 3364.902344 1040.964844 3388.128906 1046.851562 C 3403.105469 1050.644531 3420.996094 1049.351562 3431.851562 1047.957031 " />
  <path
     fill-rule="nonzero"
     fill="#c8c7c7"
     fill-opacity="1"
     d="M 3681.035156 974.058594 C 3692.226562 946.226562 3679.515625 897.261719 3628.394531 874.835938 C 3599.757812 875.058594 3567.433594 877.734375 3534.304688 882.0625 C 3503.453125 836.378906 3471.085938 790.457031 3448.949219 760.519531 C 3453.957031 759.589844 3459.367188 758.890625 3464.585938 758.890625 C 3469.683594 758.890625 3473.847656 759.546875 3476.957031 760.851562 C 3492.277344 767.234375 3502.019531 790.339844 3502.117188 790.570312 L 3503.59375 794.148438 L 3507.402344 794.898438 C 3508.390625 795.089844 3584.335938 810.753906 3659.8125 868.503906 C 3699.777344 867.714844 3728.597656 883.0625 3737.882812 913.847656 C 3750.640625 956.15625 3726.777344 978.769531 3711.089844 987.941406 C 3699.601562 993.480469 3659.472656 1000.90625 3643.910156 970.058594 C 3643.910156 970.058594 3659.761719 969.917969 3681.035156 974.058594 " />
  <path
     fill-rule="nonzero"
     fill="#6c696a"
     fill-opacity="1"
     d="M 3731.804688 2064.304688 C 3756.320312 2066.375 3806.835938 2070.632812 3831.035156 2072.636719 C 3803.722656 2029.140625 3770.824219 1981.605469 3733.03125 1931.121094 L 3730.445312 1927.667969 L 3643.378906 1943.289062 C 3673.988281 1982.8125 3702.082031 2021.066406 3726.777344 2056.996094 Z M 3731.804688 2064.304688 " />
  <path
     fill-rule="nonzero"
     fill="#6c696a"
     fill-opacity="1"
     d="M 3483.890625 1654.621094 C 3503.734375 1650.796875 3544.988281 1642.808594 3564.875 1638.722656 L 3608.90625 1260.105469 L 3620.21875 1162.9375 L 3623.1875 1137.324219 L 3541.289062 1161.207031 Z M 3483.890625 1654.621094 " />
  <path
     fill-rule="nonzero"
     fill="#6c696a"
     fill-opacity="1"
     d="M 4232.90625 2192.496094 C 4231.082031 2175.398438 4226.6875 2161.628906 4223.9375 2148.050781 L 4217.65625 2145.789062 C 4185.800781 2134.300781 4142.355469 2123.992188 4085.097656 2114.273438 C 4086.605469 2128.09375 4088.65625 2152.625 4090.371094 2175.601562 C 4100.78125 2176.140625 4151.585938 2178.972656 4172.800781 2184.273438 C 4138.890625 2188.441406 4101.121094 2189.988281 4091.4375 2190.332031 C 4092.445312 2204.683594 4093.222656 2217.214844 4093.507812 2224.277344 C 4094.472656 2248.109375 4089.417969 2262.316406 4081.953125 2263.761719 C 4093.027344 2251.480469 4078.582031 2139.53125 4074.117188 2112.414062 L 4073.019531 2104.546875 L 4072.640625 2101.316406 C 4066.472656 2059.703125 4046.902344 1970.40625 4022.773438 1873.820312 L 4020.003906 1862.722656 L 4000.210938 1786.492188 L 3997.59375 1776.804688 C 3985.292969 1731.378906 3974.070312 1692.722656 3964.246094 1661.902344 L 3941.398438 1602.65625 L 3968.273438 1648.839844 L 3977.097656 1647.0625 C 4037.523438 1634.898438 4078.894531 1626.574219 4090.035156 1624.410156 C 4094.082031 1623.625 4100.246094 1622.425781 4106.757812 1621.265625 L 4106.753906 1621.265625 C 4126.851562 1618.210938 4138.21875 1607.347656 4138.21875 1607.347656 C 4138.21875 1607.347656 4140.15625 1628.792969 4144.023438 1639.59375 L 4144.011719 1639.582031 C 4151.140625 1658.800781 4161.664062 1691.46875 4172.617188 1731.007812 L 4174.996094 1739.617188 L 4183.484375 1769.757812 L 4167.371094 1743.410156 L 4167 1743.597656 C 4153.15625 1750.476562 4127.675781 1758.707031 4091.269531 1768.039062 C 4080.179688 1770.886719 4053.824219 1776.265625 4010.761719 1784.476562 L 4030.554688 1860.699219 L 4031.238281 1860.566406 C 4072.328125 1852.6875 4099.089844 1847.171875 4110.789062 1844.171875 C 4132.167969 1838.6875 4158.765625 1831.863281 4182.570312 1822.433594 L 4186.253906 1820.972656 L 4185.878906 1781.246094 C 4185.878906 1781.246094 4194.496094 1816.1875 4194.40625 1817.738281 L 4197.128906 1830.179688 C 4218.167969 1926.296875 4229.746094 2014.675781 4231.566406 2092.855469 C 4231.898438 2107.066406 4232.085938 2121.3125 4232.152344 2135.550781 L 4232.230469 2151.042969 C 4232.230469 2151.042969 4233.96875 2173.027344 4232.90625 2192.496094 M 3999.097656 2259.117188 C 4002.222656 2218.867188 3987.796875 2196.832031 3982.8125 2190.507812 L 3970.832031 2197.164062 C 3963.636719 2201.15625 3954.648438 2204.335938 3941.6875 2207.472656 L 3940.71875 2207.707031 L 3939.710938 2207.761719 C 3930.875 2208.226562 3921.933594 2208.671875 3912.085938 2209.082031 L 3904.566406 2209.503906 C 3877.714844 2210.199219 3819.890625 2212.296875 3819.890625 2212.296875 L 3802.710938 2212.742188 C 3730.476562 2214.613281 3652.964844 2215.601562 3578.550781 2215.601562 C 3503.046875 2215.601562 3432.992188 2214.632812 3369.527344 2212.671875 L 3363.722656 2212.671875 C 3324.15625 2212.914062 3257.316406 2207.835938 3257.316406 2207.835938 L 3230.84375 2205.796875 C 3200.578125 2203.472656 3175.847656 2200.765625 3157.328125 2197.761719 C 3053.59375 2180.910156 2790.644531 2120.519531 2682.394531 2095.335938 L 2671.871094 2092.890625 L 2605.484375 2081.210938 L 2673.855469 2084.296875 L 2698.824219 1976.316406 C 2683.625 1971.496094 2655.726562 1961.078125 2637.414062 1944.800781 C 2651.335938 1951.601562 2701.289062 1965.648438 2701.289062 1965.648438 L 2711.585938 1967.703125 C 2749.539062 1975.269531 2811.203125 1986.113281 2889.425781 1994.804688 C 2954.945312 2002.089844 3010.050781 2006.097656 3062.832031 2007.425781 L 3066.984375 2007.527344 C 3066.984375 2007.527344 3148.023438 2007.878906 3177.90625 2005.945312 L 3201.054688 2004.234375 C 3249.691406 2000.640625 3295.660156 1994.660156 3341.609375 1985.949219 C 3399.113281 1975.054688 3508.007812 1955.535156 3623.296875 1934.871094 L 3635.226562 1932.738281 L 3722.519531 1917.078125 L 3739.777344 1913.976562 C 3808.609375 1901.609375 3874.761719 1889.65625 3932.011719 1879.132812 L 3912.140625 1802.859375 L 3911.363281 1803.003906 C 3839.488281 1816.199219 3755.117188 1831.390625 3674.089844 1845.921875 L 3667.777344 1847.058594 C 3667.796875 1848.214844 3469.800781 1882.585938 3469.800781 1882.585938 C 3410.898438 1893.203125 3360.414062 1902.402344 3326.984375 1908.734375 C 3254.59375 1922.445312 3181.097656 1929.164062 3102.285156 1929.277344 L 3098.09375 1929.28125 C 3055.140625 1928.917969 2972.332031 1924.070312 2972.332031 1924.070312 L 2944.921875 1921.507812 C 2928.9375 1920.015625 2913.3125 1918.390625 2898.097656 1916.695312 C 2784.886719 1904.117188 2707.203125 1886.796875 2686.085938 1881.785156 L 2684.851562 1881.496094 L 2683.726562 1880.929688 C 2675.0625 1876.582031 2652.746094 1864.292969 2632.546875 1844.101562 C 2600.019531 1811.574219 2588.585938 1775.449219 2597.570312 1733.660156 C 2604.925781 1699.503906 2613.714844 1656.707031 2623.132812 1610.859375 L 2623.863281 1607.273438 C 2648.515625 1487.132812 2682.265625 1322.585938 2698.605469 1278.25 C 2716.84375 1228.742188 2720.996094 1223.21875 2806.894531 1190.421875 C 2843.78125 1176.339844 2932.773438 1145.925781 3044.96875 1109.066406 L 3053.878906 1106.140625 L 3075.921875 1053.5 L 3064.144531 1102.765625 C 3064.144531 1102.765625 2897.226562 1711.449219 2896.355469 1717.59375 L 2896.152344 1718.675781 C 2880.734375 1780.988281 2900.195312 1843.183594 2954.007812 1903.527344 L 2961.566406 1912 C 2992.851562 1914.046875 3055.265625 1916.609375 3085.328125 1917.792969 C 3073.707031 1907.421875 3062.765625 1897.941406 3052.75 1889.589844 C 3037.351562 1876.765625 3023.8125 1863.835938 3012.507812 1851.175781 L 3007.992188 1846.117188 C 2989.710938 1846.988281 2961.039062 1845.117188 2942.996094 1829.136719 C 2968.132812 1836.746094 2998.476562 1835.460938 2998.476562 1835.460938 L 3019.417969 1833.199219 C 3041.304688 1830.84375 3108.726562 1818.769531 3225.53125 1796.316406 L 3231.003906 1795.261719 L 3449.117188 1752.597656 L 3479.414062 1746.605469 L 3568.789062 1728.855469 L 3587.027344 1725.226562 C 3671.910156 1708.316406 3767.199219 1689.242188 3873.605469 1667.871094 L 3863.570312 1615.578125 L 3883.09375 1665.960938 L 3886.117188 1675.050781 C 3895.671875 1703.835938 3907.023438 1742.347656 3919.847656 1789.515625 L 3922.941406 1800.875 L 3942.785156 1877.148438 L 3945.253906 1887.007812 C 3964.714844 1964.820312 3981.558594 2039.269531 3990.320312 2086.164062 L 3993.042969 2100.710938 L 3978.359375 2098.894531 C 3938.144531 2093.933594 3892.78125 2089.089844 3843.523438 2084.511719 L 3838.15625 2084.015625 L 3738.671875 2074.289062 L 3739.582031 2075.609375 L 3717.046875 2073.929688 C 3635.273438 2067.800781 3558.046875 2063.257812 3497.210938 2060.085938 C 3503.699219 2083.078125 3507.300781 2104.605469 3506.402344 2123.019531 C 3506.167969 2127.832031 3505.453125 2133.167969 3504.507812 2138.746094 C 3602.828125 2143.695312 3696.953125 2150.0625 3785.402344 2157.839844 L 3791.070312 2158.339844 L 3793.882812 2163.296875 C 3800.675781 2175.3125 3806.617188 2186.335938 3812.070312 2196.996094 L 3814.382812 2201.519531 L 3899.765625 2198.664062 C 3897.757812 2194.125 3895.738281 2189.585938 3893.566406 2184.976562 L 3885.304688 2167.46875 L 3904.550781 2169.597656 C 3926.339844 2172.007812 3947.152344 2174.457031 3966.933594 2176.957031 L 3999.75 2181.101562 C 3999.75 2181.101562 4013.71875 2229.878906 3999.097656 2259.117188 M 3122.15625 1188.070312 L 3153.667969 1073.730469 L 3160.019531 1038.480469 L 3161.902344 1071.085938 C 3226.355469 1050.394531 3282.796875 1032.695312 3326.675781 1019.410156 C 3307.863281 1015.257812 3283.660156 1011.160156 3283.660156 1011.160156 C 3283.660156 1011.160156 3327.585938 1010.21875 3346.886719 1013.976562 C 3383.703125 1015.746094 3432.238281 1032.007812 3491.121094 1062.304688 L 3515.054688 1074.625 C 3523.433594 1078.9375 3550.253906 1097.410156 3547.011719 1120.917969 C 3544.820312 1096.820312 3525.226562 1085.308594 3504.449219 1077.785156 L 3489.261719 1082.308594 C 3401.707031 1108.386719 3269.765625 1148.722656 3138.355469 1192.796875 L 3119.070312 1199.261719 L 3047.847656 1220.351562 Z M 4310.136719 2091.027344 C 4306.875 1950.621094 4274.238281 1807.589844 4255.082031 1734.820312 L 4254.347656 1732.039062 C 4233.457031 1653.195312 4213.496094 1598.738281 4205.996094 1585.253906 C 4188.121094 1553.085938 4166.429688 1539.367188 4133.449219 1539.367188 C 4115.625 1539.367188 4095.90625 1543.199219 4075.039062 1547.261719 C 4063.847656 1549.441406 4022.292969 1557.800781 3961.582031 1570.019531 L 3899.820312 1582.445312 C 3815.152344 1599.476562 3698.839844 1622.832031 3578.175781 1646.859375 L 3563.589844 1649.765625 L 3482.585938 1665.855469 L 3474.851562 1667.390625 C 3189.640625 1723.898438 3033.582031 1753.410156 3010.820312 1755.105469 C 3004.988281 1755.445312 3000.132812 1755.578125 2996.121094 1755.578125 C 2990.875 1755.578125 2986.359375 1755.351562 2982.699219 1754.90625 L 2973.417969 1753.769531 C 2973.417969 1753.769531 2953.582031 1754.054688 2928.773438 1746.777344 C 2945.015625 1748.628906 2962.398438 1747.558594 2973.234375 1746.484375 L 2973.183594 1744.429688 C 2973.015625 1737.800781 2973.859375 1729.46875 2975.894531 1718.769531 L 3091.027344 1300.992188 L 3025.835938 1309.9375 L 3099.160156 1289.160156 C 3253.125 1235.886719 3416.832031 1185.746094 3527.058594 1153.058594 L 3648.953125 1117.644531 L 3658.730469 1115.148438 C 3711.742188 1103.265625 3808.417969 1085.527344 3819.058594 1095.726562 C 3797.773438 1093.953125 3730.996094 1104.855469 3667.042969 1134.882812 C 3658.300781 1140.21875 3648.960938 1145.835938 3639.027344 1151.75 L 3631.917969 1155.980469 L 3620.582031 1253.4375 C 3849.238281 1122.777344 3865.628906 1087.976562 3869.511719 1074.675781 C 3871.339844 1066.855469 3871.308594 1058.058594 3868.75 1049.226562 C 3852.519531 999.582031 3796.769531 949.808594 3749.539062 919.21875 C 3759.347656 943.160156 3751.40625 974.035156 3719.746094 994.035156 C 3723.03125 996.421875 3726.304688 998.75 3729.625 1001.339844 L 3749.320312 1016.667969 L 3724.671875 1020.574219 C 3693.902344 1025.449219 3660.457031 1033.589844 3628.964844 1041.636719 L 3626.507812 1042.328125 C 3635.667969 1055.585938 3642.066406 1075.546875 3627.484375 1097.800781 C 3631.566406 1082.140625 3630.714844 1058.535156 3617.148438 1044.96875 L 3613.015625 1042.265625 C 3593.78125 1029.6875 3563.25 1010.785156 3527.046875 992.199219 L 3500.75 978.695312 L 3435.183594 952.183594 L 3434.175781 948.882812 C 3431.652344 940.5625 3422.03125 921.683594 3387.429688 920.238281 C 3382.386719 921.53125 3377.46875 922.824219 3372.71875 924.121094 C 3326.300781 936.777344 3230.628906 966.332031 3110.113281 1005.253906 L 3108.488281 1005.78125 C 2961.925781 1053.121094 2826.386719 1098.859375 2778.855469 1117.003906 C 2681.757812 1154.074219 2653.957031 1172.085938 2624.863281 1251.101562 C 2606.480469 1300.964844 2574.820312 1455.308594 2546.875 1591.480469 L 2546.578125 1592.925781 C 2537.0625 1639.300781 2528.167969 1682.648438 2520.746094 1717.125 C 2494.804688 1837.667969 2581.800781 1909.839844 2620.410156 1935.273438 L 2626.703125 1939.414062 L 2586.785156 2112.023438 L 2586.785156 2112.535156 L 2586.390625 2113.714844 L 2582.152344 2132.015625 L 2581.847656 2132.789062 C 2576.828125 2145.324219 2565.40625 2176.589844 2555.730469 2222.523438 C 2583.847656 2216.609375 2610.167969 2213.15625 2638.730469 2212.984375 C 2642.367188 2198.875 2645.941406 2187.160156 2648.90625 2178.308594 L 2591.875 2145.992188 L 2652.039062 2168.972656 L 2661.632812 2171.207031 C 2770.859375 2196.664062 3036.589844 2257.765625 3144.71875 2275.332031 C 3182.527344 2281.472656 3240.5 2286.230469 3317.019531 2289.464844 L 3327.652344 2289.917969 L 3406.191406 2292.359375 L 3416.976562 2292.589844 C 3466.148438 2293.636719 3519.3125 2294.171875 3574.984375 2294.171875 C 3692.523438 2294.171875 3816.839844 2291.765625 3916.042969 2287.578125 C 4057.46875 2281.601562 4157.480469 2266.328125 4216.480469 2254.566406 L 4222.167969 2253.433594 C 4225.707031 2241.25 4229.96875 2231.125 4232.425781 2214.164062 C 4232.070312 2220.890625 4230.039062 2251.867188 4230.039062 2251.867188 L 4229.414062 2265.675781 C 4221.511719 2439.652344 4198.960938 2584.988281 4180.488281 2662.984375 C 4178.089844 2673.128906 4175.847656 2682.570312 4173.554688 2691.351562 L 4169.777344 2705.835938 C 4163.632812 2744.695312 4142.28125 2767.382812 4129.328125 2772.035156 L 4106.558594 2779.050781 C 4091.640625 2783.644531 4073.246094 2785.878906 4050.339844 2785.878906 C 4018.894531 2785.878906 3977.613281 2781.710938 3920.457031 2772.769531 C 3821.085938 2757.222656 3633.367188 2721.144531 3405.445312 2673.792969 L 3396.597656 2671.949219 L 3359.574219 2665.050781 L 3396.808594 2663.609375 L 3401.042969 2496.355469 L 3403.097656 2415.027344 L 3405.921875 2303.070312 L 3327.382812 2300.625 L 3325.054688 2392.324219 L 3323 2473.503906 L 3318.597656 2647.808594 L 3346.273438 2662.132812 L 3318.398438 2655.5625 L 3305.664062 2652.871094 C 3014.523438 2591.292969 2769.910156 2535.175781 2667.28125 2506.414062 C 2651.570312 2502.007812 2635.308594 2493.457031 2626.054688 2458.171875 C 2614.007812 2455.644531 2602.882812 2452.511719 2592.820312 2448.558594 C 2573.644531 2441.023438 2555.167969 2432.46875 2541.257812 2421.574219 C 2546.707031 2494.71875 2569.964844 2560.75 2646.078125 2582.085938 C 2782.960938 2620.460938 3097.761719 2689.691406 3347.132812 2741.785156 L 3348.394531 2742.042969 C 3593.113281 2793.140625 3807.664062 2834.667969 3908.316406 2850.417969 C 3962.472656 2858.890625 4007.160156 2863.007812 4044.9375 2863.007812 L 4045.003906 2863.007812 C 4120.421875 2863.007812 4168.515625 2846.84375 4200.957031 2810.605469 C 4205.675781 2805.6875 4210.945312 2798.242188 4212.292969 2796.257812 C 4230.5 2770.183594 4244.273438 2734.667969 4256.960938 2681.09375 C 4286.300781 2557.25 4315.453125 2319.773438 4310.136719 2091.027344 " />
  <path
     fill-rule="nonzero"
     fill="#6c696a"
     fill-opacity="1"
     d="M 3623.433594 884.367188 C 3591.722656 884.460938 3563.027344 887.902344 3526.308594 893.011719 C 3537.34375 903.605469 3546.125 914.5625 3551.609375 926.15625 C 3559.351562 942.527344 3561.695312 956.621094 3561.6875 967.828125 C 3590.136719 964.578125 3610.136719 962.878906 3630.566406 962.878906 C 3648.070312 962.878906 3667.144531 961.660156 3674.503906 964.332031 C 3677.78125 942.378906 3662.578125 899.875 3623.433594 884.367188 " />
  <path
     fill-rule="nonzero"
     fill="#727070"
     fill-opacity="1"
     d="M 3354.125 818.527344 C 3353.101562 808.808594 3348.765625 793.625 3331.777344 790.84375 C 3318.132812 788.609375 3307.023438 790.660156 3299.558594 793.023438 C 3280.316406 786.152344 3267.726562 796.550781 3260.847656 805.582031 C 3292.628906 813.410156 3329.015625 832.296875 3355.726562 844.730469 C 3382.441406 857.167969 3413.761719 875.128906 3413.761719 875.128906 C 3413.761719 875.128906 3445.078125 872.828125 3465.804688 878.8125 C 3441.589844 862.09375 3392.65625 837.253906 3354.125 818.527344 " />
  <path
     fill-rule="nonzero"
     fill="#727070"
     fill-opacity="1"
     d="M 3383.527344 896.058594 C 3370.160156 890.113281 3330.417969 893.085938 3307.054688 911.203125 C 3307.054688 911.203125 3283.289062 897.183594 3262.566406 884.589844 C 3241.847656 871.996094 3226.207031 852.902344 3226.207031 852.902344 C 3226.207031 852.902344 3227.425781 867.324219 3241.847656 879.714844 C 3256.269531 892.105469 3294.578125 915.082031 3311.84375 922.800781 C 3318.53125 909.800781 3345.644531 890.484375 3383.527344 896.058594 " />
  <path
     fill-rule="nonzero"
     fill="#727070"
     fill-opacity="1"
     d="M 3465.28125 769.09375 C 3465.28125 769.09375 3539.796875 871.101562 3541.121094 873.417969 C 3560.992188 869.777344 3574.242188 868.453125 3573.25 868.453125 C 3572.253906 868.453125 3554.703125 848.25 3537.148438 832.351562 C 3519.59375 816.453125 3502.707031 807.84375 3502.707031 807.84375 C 3502.707031 807.84375 3481.507812 774.722656 3465.28125 769.09375 " />
  <path
     fill-rule="nonzero"
     fill="#ffffff"
     fill-opacity="1"
     d="M 3411.851562 742.128906 C 3390.96875 718.738281 3374.261719 702.867188 3335.835938 711.21875 C 3297.367188 719.582031 3194.660156 768.023438 3166.257812 785.566406 C 3137.859375 803.105469 3139.527344 846.546875 3162.917969 876.617188 C 3176.484375 894.0625 3201.03125 923.058594 3228.53125 957.1875 C 3252.507812 949.671875 3274.984375 942.722656 3295.4375 936.5 C 3284.15625 929.652344 3257.691406 913.164062 3232.109375 894.097656 C 3204.6875 873.65625 3202.054688 835.175781 3225.832031 802.609375 C 3246.578125 774.199219 3268.691406 760.386719 3293.4375 760.386719 C 3300.558594 760.386719 3310.578125 762.898438 3322.542969 767.28125 C 3333.746094 764.511719 3365.648438 758.726562 3396.953125 772.8125 C 3428.773438 787.132812 3431.90625 816.410156 3432.003906 826.527344 C 3433.507812 827.464844 3434.992188 828.40625 3436.496094 829.34375 C 3463.398438 846.082031 3489.449219 862.335938 3510.523438 879.25 C 3467.429688 816.015625 3423.648438 755.339844 3411.851562 742.128906 " />
  <path
     fill-rule="nonzero"
     fill="#c8c7c7"
     fill-opacity="1"
     d="M 3354.390625 1112.980469 C 3338.535156 1090.546875 3320.355469 1065.191406 3301.730469 1039.371094 C 3299.003906 1040.210938 3296.222656 1041.070312 3293.441406 1041.929688 C 3312.171875 1067.914062 3330.363281 1093.304688 3346.0625 1115.558594 C 3348.867188 1114.683594 3351.605469 1113.84375 3354.390625 1112.980469 " />
  <path
     fill-rule="nonzero"
     fill="#c8c7c7"
     fill-opacity="1"
     d="M 3228.53125 957.191406 C 3231.21875 956.347656 3233.875 955.515625 3236.527344 954.6875 C 3210.300781 922.242188 3187.101562 894.789062 3174.050781 878.011719 C 3150.664062 847.9375 3148.992188 804.5 3177.394531 786.957031 C 3205.796875 769.417969 3308.5 720.976562 3346.96875 712.613281 C 3355.023438 710.859375 3361.957031 710.386719 3368.339844 710.613281 C 3359.289062 708.519531 3348.878906 708.382812 3335.835938 711.21875 C 3297.367188 719.582031 3194.660156 768.023438 3166.257812 785.566406 C 3137.855469 803.109375 3139.527344 846.546875 3162.917969 876.617188 C 3176.484375 894.0625 3201.03125 923.058594 3228.53125 957.191406 " />
</svg>
