<svg xmlns="http://www.w3.org/2000/svg" viewBox="0 0 64 64" id="american-football-helmet">
  <g>
    <path fill="#e9edf5" d="M41 41v3.09l-5.56 3.79a1.823 1.823 0 0 1-1.65-.17 1.677 1.677 0 0 1 .13-2.92Z"></path>
    <circle cx="32" cy="29" r="2" fill="#e9edf5"></circle>
    <path fill="#e9edf5" d="M62.5 43.29a1.219 1.219 0 0 1-.07.41L61 48v1.33a2 2 0 0 1-1.64 1.97L50 53v-3l2-5 8.8-2.93a.653.653 0 0 1 .2-.05.749.749 0 0 1 .21-.02 1.293 1.293 0 0 1 1.29 1.29zM13.21 19.23l-1.11-1.12A30.284 30.284 0 0 0 9 23v6l3 .92v-4.44a3.873 3.873 0 0 1 1.21-2.71 2.378 2.378 0 0 0 0-3.54z"></path>
    <path fill="#9a1c20" d="m25 30-6.06-1.6L12 26.58v3.34l6.4 1.97 1.36.42a6.641 6.641 0 0 1 3.4 2.44 4.843 4.843 0 0 1 2.61-.75H27l.25-.15Z"></path>
    <path fill="#9a1c20" d="M27.25 33.85 32 42l-3 2-9 1.64v-1.45a4.03 4.03 0 0 1 1.84-3.37l.93-.59a4.184 4.184 0 0 0 .53-5.28c-.05-.07-.09-.14-.14-.2a4.843 4.843 0 0 1 2.61-.75H27Z"></path>
    <path fill="#85181c" d="M33.52 50.5 29 47.96c-1.3-.76-1.28-2.7 0-3.96l13-8h15c4.37 0 5.69-2.3 5.95-2.87a23.768 23.768 0 0 1-.87 5.1L61 42v.02a.653.653 0 0 0-.2.05L52 45l-15.24 5.77a3.912 3.912 0 0 1-3.24-.27Zm.27-2.79a1.823 1.823 0 0 0 1.65.17L41 44.09V41l-7.08 3.79a1.677 1.677 0 0 0-.13 2.92Z"></path>
    <path fill="#9a1c20" d="m52 45-2 5v2c-4.16 0-8.32 2.89-10.48 4.65A5.958 5.958 0 0 1 35.73 58H34c-8.29 0-14-5.58-14-10v-2.36L29 44c-1.28 1.26-1.3 3.2 0 3.96l4.52 2.54a3.912 3.912 0 0 0 3.24.27zM18.94 28.4 12 26.58v-1.1a3.873 3.873 0 0 1 1.21-2.71 2.378 2.378 0 0 0 0-3.54l-1.11-1.12C15.92 13.09 23.38 6 35 6c15.48 0 28 11.18 28 25v.64c0 .5-.02.99-.05 1.49C62.69 33.7 61.37 36 57 36H42l-13 8 3-2-4.75-8.15L25 30zM34 29a2 2 0 1 0-2 2 2.006 2.006 0 0 0 2-2z"></path>
    <path fill="#cdd2e1" d="M41 41v3.09l-5.56 3.79a1.823 1.823 0 0 1-1.65-.17 1.677 1.677 0 0 1 .13-2.92Z"></path>
    <path fill="#85181c" d="M40 27a20.513 20.513 0 0 0-10.363.536 4.35 4.35 0 0 0-2.387 6.314L32 42l-3 2 13-8h15c4.37 0 5.69-2.3 5.95-2.87.03-.5.05-.99.05-1.49V31c0-.648-.036-1.288-.09-1.923C57.172 31.33 49.772 28.777 40 27Zm-8 4a2 2 0 1 1 2-2 2.006 2.006 0 0 1-2 2Z"></path>
    <path fill="#cdd2e1" d="m13.21 19.23-.21-.214a2.5 2.5 0 0 1-.788 1.754A3.873 3.873 0 0 0 11 23.48v2.348a1.547 1.547 0 0 1-2 1.479V29l3 .92v-4.44a3.873 3.873 0 0 1 1.21-2.71 2.378 2.378 0 0 0 0-3.54Z"></path>
    <path fill="#741213" d="M43 39h15a7.979 7.979 0 0 0 4.132-.973 23.7 23.7 0 0 0 .818-4.9C62.69 33.7 61.37 36 57 36H42l-13 8c-1.28 1.26-1.3 3.2 0 3.96l.257.145A3.328 3.328 0 0 1 30 47Z"></path>
    <path fill="#cdd2e1" d="m55.944 48.528-1.417.708a1.056 1.056 0 0 1-1.377-1.487l2.35-3.914L52 45l-2 5v3l9.36-1.7A2 2 0 0 0 61 49.33V48h-2.82a5 5 0 0 0-2.236.528Z"></path>
    <path fill="#741213" d="M20.839 30.526 12 28v1.92l6.4 1.97 1.36.42a6.641 6.641 0 0 1 3.4 2.44 4.823 4.823 0 0 1 2.291-.728 7.993 7.993 0 0 0-4.612-3.496Z"></path>
    <path fill="#741213" d="M24.916 41.521a2.458 2.458 0 0 0 1.847-2.656l-.17-1.531a8 8 0 0 0-1.142-3.312 4.823 4.823 0 0 0-2.291.728c.05.06.09.13.14.2a4.184 4.184 0 0 1-.53 5.28l-.93.59A4.03 4.03 0 0 0 20 44.19v1.45l3-.547v-1.118a2.53 2.53 0 0 1 1.916-2.454Z"></path>
    <path fill="#741213" d="m48.3 46.4-.9 1.8a5.592 5.592 0 0 0-.433 1.468 2.03 2.03 0 0 1-.205.573 20.961 20.961 0 0 0-5.7 2.855l-1.01.722a10.342 10.342 0 0 1-7.652 1.84C23.75 54.253 23 49 23 49v-3.907l-3 .547V48c0 4.42 5.71 10 14 10h1.73a5.958 5.958 0 0 0 3.79-1.35C41.68 54.89 45.84 52 50 52v-2l2-5Z"></path>
    <path fill="#b82126" d="M32 10c13.51 0 24.752 8.506 27.4 19.842a12.885 12.885 0 0 0 3.513-.8C61.811 16.142 49.754 6 35 6c-11.62 0-19.08 7.078-22.9 12.09l.276.278A27.5 27.5 0 0 1 32 10Z"></path>
    <path fill="#9a1c20" d="m59.08 42.23-.131.456 1.851-.616a.653.653 0 0 1 .2-.05V42l1.08-3.77c.019-.067.033-.136.052-.2a7.036 7.036 0 0 1-2.354.811 24.123 24.123 0 0 1-.698 3.389Z"></path>
    <path fill="#85181c" d="M60 35.541v.1c0 .5-.02.99-.05 1.49-.033.572-.1 1.141-.172 1.708a7.036 7.036 0 0 0 2.354-.811c.217-.8.4-1.6.535-2.414.01-.064.017-.128.027-.191.055-.344.107-.689.146-1.035q.072-.626.109-1.254A4.87 4.87 0 0 1 60 35.541Z"></path>
    <path fill="#9a1c20" d="M62.91 29.077a12.825 12.825 0 0 1-3.5.8A22.592 22.592 0 0 1 60 35v.541a4.87 4.87 0 0 0 2.95-2.411c.03-.5.05-.99.05-1.49V31c0-.648-.036-1.288-.09-1.923Z"></path>
    <path fill="#b82126" d="M20.213 24.268 15 22.313a15.214 15.214 0 0 1 12.721-10.3 1.754 1.754 0 0 1 1.746.828l.829 1.381a1.729 1.729 0 0 1-.9 2.526 11.042 11.042 0 0 0-6.959 6.508 1.733 1.733 0 0 1-2.224 1.012Z"></path>
    <circle cx="26" cy="48" r="1" fill="#e9edf5"></circle>
    <circle cx="28" cy="51" r="1" fill="#e9edf5"></circle>
    <circle cx="32" cy="53" r="1" fill="#e9edf5"></circle>
    <ellipse cx="52.684" cy="15.695" fill="#f6fafd" rx="1.642" ry="2.286" transform="rotate(-45.02 52.684 15.695)"></ellipse>
    <ellipse cx="43.682" cy="18.708" fill="#f6fafd" rx=".825" ry="1.148" transform="rotate(-45.02 43.681 18.707)"></ellipse>
    <ellipse cx="41.427" cy="16.208" fill="#f6fafd" rx=".413" ry=".574" transform="rotate(-45.02 41.427 16.208)"></ellipse>
    <path fill="none" stroke="#000" stroke-linejoin="round" stroke-width="2" d="M18.077 34 15 54l-9.195 1.672a2 2 0 0 1-2.288-1.442L1 45v-2.34a2 2 0 0 1 1.631-1.966L17 38M19 28l-.923 6.001"></path>
    <path fill="none" stroke="#000" stroke-linejoin="round" stroke-width="2" d="M22.662 9A26.374 26.374 0 0 1 35 6c15.477 0 28 11.182 28 25v.639a24.02 24.02 0 0 1-.923 6.593l-.22.768M19 11.279q.908-.663 1.9-1.279M50 52c-4.161 0-8.322 2.886-10.482 4.655A5.961 5.961 0 0 1 35.734 58H34c-8.291 0-14-5.578-14-10v-3.81a4 4 0 0 1 1.845-3.37l.929-.594A4.184 4.184 0 0 0 24 37.267a4.186 4.186 0 0 0-.7-2.321 6.567 6.567 0 0 0-3.532-2.634L9 29v-6a34.385 34.385 0 0 1 8-10.129M50 50l2-5 8.8-2.934a1.291 1.291 0 0 1 .409-.066 1.291 1.291 0 0 1 1.225 1.7L61 48v1.331a2 2 0 0 1-1.642 1.969L50 53z"></path>
    <path fill="none" stroke="#000" stroke-linejoin="round" stroke-width="2" d="M1 45c0 1.1 8.709 1 17 1l11-2 3-2-7-12-18.158-4.778A1.131 1.131 0 0 1 6 24.129 1.13 1.13 0 0 1 7.129 23H9"></path>
    <path fill="none" stroke="#000" stroke-linejoin="round" stroke-width="2" d="m19.535 39.544 2-3.194A5 5 0 0 1 25.771 34H27M1 42h13M4 55l8-4c1.789-.894 4-5 4-5m47-13s-1.015 3-6 3H42l-13 8c-1.279 1.256-1.3 3.2 0 3.965l4.519 2.535a3.9 3.9 0 0 0 3.244.269L52 45"></path>
    <path fill="none" stroke="#000" stroke-linejoin="round" stroke-width="2" d="M33.917 44.786 41 41v3.091l-5.555 3.786a1.843 1.843 0 0 1-1.651-.165 1.681 1.681 0 0 1 .123-2.926Z"></path>
    <circle cx="32" cy="29" r="2" fill="none" stroke="#000" stroke-linejoin="round" stroke-width="2"></circle>
    <path fill="none" stroke="#000" stroke-linejoin="round" stroke-width="2" d="M12 30v-4.518a3.883 3.883 0 0 1 1.212-2.715 2.375 2.375 0 0 0 0-3.534L12 18"></path>
  </g>
</svg>
